# xmcd
#
# Track frame offsets:
#	150
#	19340
#	39378
#	59484
#	84392
#	104723
#	110767
#	134581
#	150748
#	171089
#	186136
#	198246
#	214300
#	227269
#	237307
#	246101
#	256637
#	269575
#	292038
#
# Disc length: 4167 seconds
#
# Revision: 1
# Processed by: cddbd v1.4PL0 Copyright (c) Steve Scherf et al.
# Submitted via: audiograbber 1.80.04
#
DISCID=17104513
DTITLE=Gaither Gospel Series - Christmas in the Country
DYEAR=2000
DGENRE=Gospel
TTITLE0=Ivan Parker, Buddy Mullins, Ladye Love Smith - Come and See What's Happ
TTITLE0=enin'
TTITLE1=Gaither Vocal Band - Mary Was the First One to Carry the Gospel
TTITLE2=Greater Vision - Hark! The Herald Angels Sing/O Come All Ye Faithful
TTITLE3=Terry Blackwood, Lisa Daggs, Buddy Mullins, Squire Parsons, Ann Downing
TTITLE3=, Sarah DeLane - Christmas In the Country
TTITLE4=The Happy Goodmans - Unspeakable Joy
TTITLE5=Jack Toney - Joy to the World
TTITLE6=David Phelps - O Holy Night
TTITLE7=Woody Wright, Mike Allen, Gene McDonald, Glenn Dustin, George Younce - 
TTITLE7=He Drew the Line
TTITLE8=Babbie Mason, Guy Penrod - Tennessee Christmas
TTITLE9=Old Friends Quartet - Glory to God in the Highest
TTITLE10=Amber Thompson, Kelly Nelon - Away in a Manger
TTITLE11=Janet Paschal - Sitting by the Fire
TTITLE12=Jeff and Sheri Easter, Charlotte Ritchie - Something to Shout About
TTITLE13=Kim Hopper, TaRanda Kiser, Tony Greene - Christ is Born
TTITLE14=Dean Hopper, Kim Hopper, David Phelps - Jingle Bells
TTITLE15=Squire Parsons - O Little Town of Bethleham
TTITLE16=Russ Taff - What a Wonderful World
TTITLE17=Ladye Love Smith, Donnie Sumner, Lana Ranahan, Jessy Dixon - Love in A
TTITLE17=ny Language
TTITLE18=Buddy Greene - Silent Night, Holy Night
EXTD=
EXTT0=
EXTT1=
EXTT2=
EXTT3=
EXTT4=
EXTT5=
EXTT6=
EXTT7=
EXTT8=
EXTT9=
EXTT10=
EXTT11=
EXTT12=
EXTT13=
EXTT14=
EXTT15=
EXTT16=
EXTT17=
EXTT18=
PLAYORDER=
